<?xml version="1.0" standalone="no"?>
<!DOCTYPE svg PUBLIC "-//W3C//DTD SVG 1.1//EN"
"http://www.w3.org/Graphics/SVG/1.1/DTD/svg11.dtd">
<svg height="600" version="1.1" width="800" xmlns="http://www.w3.org/2000/svg"><g><rect fill="#f9f9f9" height="600" width="800" x="0" y="0" /><g transform="translate(40 40)"><g transform="translate(70 0)" /><g transform="translate(0 0)"><g transform="translate(70 0)"><g class="axis bottom"><text dy="1em" fill="#666" font-family="Monaco" text-anchor="middle" transform="" x="325.0" y="506.0">Count</text><g class="tick"><line stroke="#eee" stroke-width="1" x1="162.50" x2="162.50" y1="0" y2="472.0" /><text dy="1em" fill="#9c9c9c" font-family="Monaco" text-anchor="middle" x="162.50" y="476.0">10</text></g><g class="tick"><line stroke="#eee" stroke-width="1" x1="325.0" x2="325.0" y1="0" y2="472.0" /><text dy="1em" fill="#9c9c9c" font-family="Monaco" text-anchor="middle" x="325.0" y="476.0">20</text></g><g class="tick"><line stroke="#eee" stroke-width="1" x1="487.50" x2="487.50" y1="0" y2="472.0" /><text dy="1em" fill="#9c9c9c" font-family="Monaco" text-anchor="middle" x="487.50" y="476.0">30</text></g><g class="tick"><line stroke="#eee" stroke-width="1" x1="650" x2="650" y1="0" y2="472.0" /><text dy="1em" fill="#9c9c9c" font-family="Monaco" text-anchor="middle" x="650" y="476.0">40</text></g><g class="tick"><line stroke="#a8a8a8" stroke-width="1" x1="0" x2="0" y1="0" y2="472.0" /><text dy="1em" fill="#9c9c9c" font-family="Monaco" text-anchor="middle" x="0" y="476.0">0</text></g></g><g class="axis left"><text dy="" fill="#666" font-family="Monaco" text-anchor="middle" transform="rotate(270 -48 234)" x="-48" y="234.0">new_race</text><g class="tick"><line stroke="#eee" stroke-width="1" x1="-4" x2="650.0" y1="409.5" y2="409.5" /><text dy="0.32em" fill="#9c9c9c" font-family="Monaco" text-anchor="end" x="-8" y="409.5">None</text></g><g class="tick"><line stroke="#eee" stroke-width="1" x1="-4" x2="650.0" y1="292.5" y2="292.5" /><text dy="0.32em" fill="#9c9c9c" font-family="Monaco" text-anchor="end" x="-8" y="292.5">H</text></g><g class="tick"><line stroke="#eee" stroke-width="1" x1="-4" x2="650.0" y1="175.5" y2="175.5" /><text dy="0.32em" fill="#9c9c9c" font-family="Monaco" text-anchor="end" x="-8" y="175.5">W</text></g><g class="tick"><line stroke="#eee" stroke-width="1" x1="-4" x2="650.0" y1="58.5" y2="58.5" /><text dy="0.32em" fill="#9c9c9c" font-family="Monaco" text-anchor="end" x="-8" y="58.5">B</text></g></g><g><g class="series bars"><rect fill="#e41a1c" height="105.30" width="32.50" x="0" y="239.85" /><rect fill="#e41a1c" height="105.30" width="195.0" x="0" y="122.85" /><rect fill="#e41a1c" height="105.30" width="536.250" x="0" y="5.85" /></g></g></g></g></g></g></svg>