<?xml version="1.0" standalone="no"?>
<!DOCTYPE svg PUBLIC "-//W3C//DTD SVG 1.1//EN"
"http://www.w3.org/Graphics/SVG/1.1/DTD/svg11.dtd">
<svg height="600" version="1.1" width="800" xmlns="http://www.w3.org/2000/svg"><g><rect fill="#f9f9f9" height="600" width="800" x="0" y="0" /><g transform="translate(40 40)"><g transform="translate(54 0)" /><g transform="translate(0 0)"><g transform="translate(54 0)"><g class="axis bottom"><text dy="1em" fill="#666" font-family="Monaco" text-anchor="middle" transform="" x="333.0" y="506.0">Count</text><g class="tick"><line stroke="#eee" stroke-width="1" x1="166.50" x2="166.50" y1="0" y2="472.0" /><text dy="1em" fill="#9c9c9c" font-family="Monaco" text-anchor="middle" x="166.50" y="476.0">10</text></g><g class="tick"><line stroke="#eee" stroke-width="1" x1="333.0" x2="333.0" y1="0" y2="472.0" /><text dy="1em" fill="#9c9c9c" font-family="Monaco" text-anchor="middle" x="333.0" y="476.0">20</text></g><g class="tick"><line stroke="#eee" stroke-width="1" x1="499.50" x2="499.50" y1="0" y2="472.0" /><text dy="1em" fill="#9c9c9c" font-family="Monaco" text-anchor="middle" x="499.50" y="476.0">30</text></g><g class="tick"><line stroke="#eee" stroke-width="1" x1="666" x2="666" y1="0" y2="472.0" /><text dy="1em" fill="#9c9c9c" font-family="Monaco" text-anchor="middle" x="666" y="476.0">40</text></g><g class="tick"><line stroke="#a8a8a8" stroke-width="1" x1="0" x2="0" y1="0" y2="472.0" /><text dy="1em" fill="#9c9c9c" font-family="Monaco" text-anchor="middle" x="0" y="476.0">0</text></g></g><g class="axis left"><text dy="" fill="#666" font-family="Monaco" text-anchor="middle" transform="rotate(270 -32 234)" x="-32" y="234.0">new_race</text><g class="tick"><line stroke="#eee" stroke-width="1" x1="-4" x2="666.0" y1="390" y2="390" /><text dy="0.32em" fill="#9c9c9c" font-family="Monaco" text-anchor="end" x="-8" y="390">Bi</text></g><g class="tick"><line stroke="#eee" stroke-width="1" x1="-4" x2="666.0" y1="234" y2="234" /><text dy="0.32em" fill="#9c9c9c" font-family="Monaco" text-anchor="end" x="-8" y="234">B</text></g><g class="tick"><line stroke="#eee" stroke-width="1" x1="-4" x2="666.0" y1="78" y2="78" /><text dy="0.32em" fill="#9c9c9c" font-family="Monaco" text-anchor="end" x="-8" y="78">W</text></g></g><g><g class="series bars"><rect fill="#e41a1c" height="140.4" width="16.650" x="0" y="319.8" /><rect fill="#e41a1c" height="140.4" width="582.750" x="0" y="163.8" /><rect fill="#e41a1c" height="140.4" width="316.350" x="0" y="7.8" /></g></g></g></g></g></g></svg>