<?xml version="1.0" standalone="no"?>
<!DOCTYPE svg PUBLIC "-//W3C//DTD SVG 1.1//EN"
"http://www.w3.org/Graphics/SVG/1.1/DTD/svg11.dtd">
<svg height="600" version="1.1" width="800" xmlns="http://www.w3.org/2000/svg"><g><rect fill="#f9f9f9" height="600" width="800" x="0" y="0" /><g transform="translate(40 40)"><g transform="translate(142 0)" /><g transform="translate(0 0)"><g transform="translate(142 0)"><g class="axis bottom"><text dy="1em" fill="#666" font-family="Monaco" text-anchor="middle" transform="" x="289.0" y="506.0">Count</text><g class="tick"><line stroke="#eee" stroke-width="1" x1="144.50" x2="144.50" y1="0" y2="472.0" /><text dy="1em" fill="#9c9c9c" font-family="Monaco" text-anchor="middle" x="144.50" y="476.0">5</text></g><g class="tick"><line stroke="#eee" stroke-width="1" x1="289.0" x2="289.0" y1="0" y2="472.0" /><text dy="1em" fill="#9c9c9c" font-family="Monaco" text-anchor="middle" x="289.0" y="476.0">10</text></g><g class="tick"><line stroke="#eee" stroke-width="1" x1="433.50" x2="433.50" y1="0" y2="472.0" /><text dy="1em" fill="#9c9c9c" font-family="Monaco" text-anchor="middle" x="433.50" y="476.0">15</text></g><g class="tick"><line stroke="#eee" stroke-width="1" x1="578" x2="578" y1="0" y2="472.0" /><text dy="1em" fill="#9c9c9c" font-family="Monaco" text-anchor="middle" x="578" y="476.0">20</text></g><g class="tick"><line stroke="#a8a8a8" stroke-width="1" x1="0" x2="0" y1="0" y2="472.0" /><text dy="1em" fill="#9c9c9c" font-family="Monaco" text-anchor="middle" x="0" y="476.0">0</text></g></g><g class="axis left"><text dy="" fill="#666" font-family="Monaco" text-anchor="middle" transform="rotate(270 -120 234)" x="-120" y="234.0">new_age</text><g class="tick"><line stroke="#eee" stroke-width="1" x1="-4" x2="578.0" y1="452.4" y2="452.4" /><text dy="0.32em" fill="#9c9c9c" font-family="Monaco" text-anchor="end" x="-8" y="452.4">[72.0 - 76.5)</text></g><g class="tick"><line stroke="#eee" stroke-width="1" x1="-4" x2="578.0" y1="421.2" y2="421.2" /><text dy="0.32em" fill="#9c9c9c" font-family="Monaco" text-anchor="end" x="-8" y="421.2">[67.5 - 72.0)</text></g><g class="tick"><line stroke="#eee" stroke-width="1" x1="-4" x2="578.0" y1="390.0" y2="390.0" /><text dy="0.32em" fill="#9c9c9c" font-family="Monaco" text-anchor="end" x="-8" y="390.0">[63.0 - 67.5)</text></g><g class="tick"><line stroke="#eee" stroke-width="1" x1="-4" x2="578.0" y1="358.8" y2="358.8" /><text dy="0.32em" fill="#9c9c9c" font-family="Monaco" text-anchor="end" x="-8" y="358.8">[58.5 - 63.0)</text></g><g class="tick"><line stroke="#eee" stroke-width="1" x1="-4" x2="578.0" y1="327.6" y2="327.6" /><text dy="0.32em" fill="#9c9c9c" font-family="Monaco" text-anchor="end" x="-8" y="327.6">[54.0 - 58.5)</text></g><g class="tick"><line stroke="#eee" stroke-width="1" x1="-4" x2="578.0" y1="296.4" y2="296.4" /><text dy="0.32em" fill="#9c9c9c" font-family="Monaco" text-anchor="end" x="-8" y="296.4">[49.5 - 54.0)</text></g><g class="tick"><line stroke="#eee" stroke-width="1" x1="-4" x2="578.0" y1="265.2" y2="265.2" /><text dy="0.32em" fill="#9c9c9c" font-family="Monaco" text-anchor="end" x="-8" y="265.2">[45.0 - 49.5)</text></g><g class="tick"><line stroke="#eee" stroke-width="1" x1="-4" x2="578.0" y1="234.0" y2="234.0" /><text dy="0.32em" fill="#9c9c9c" font-family="Monaco" text-anchor="end" x="-8" y="234.0">[40.5 - 45.0)</text></g><g class="tick"><line stroke="#eee" stroke-width="1" x1="-4" x2="578.0" y1="202.8" y2="202.8" /><text dy="0.32em" fill="#9c9c9c" font-family="Monaco" text-anchor="end" x="-8" y="202.8">[36.0 - 40.5)</text></g><g class="tick"><line stroke="#eee" stroke-width="1" x1="-4" x2="578.0" y1="171.6" y2="171.6" /><text dy="0.32em" fill="#9c9c9c" font-family="Monaco" text-anchor="end" x="-8" y="171.6">[31.5 - 36.0)</text></g><g class="tick"><line stroke="#eee" stroke-width="1" x1="-4" x2="578.0" y1="140.4" y2="140.4" /><text dy="0.32em" fill="#9c9c9c" font-family="Monaco" text-anchor="end" x="-8" y="140.4">[27.0 - 31.5)</text></g><g class="tick"><line stroke="#eee" stroke-width="1" x1="-4" x2="578.0" y1="109.2" y2="109.2" /><text dy="0.32em" fill="#9c9c9c" font-family="Monaco" text-anchor="end" x="-8" y="109.2">[22.5 - 27.0)</text></g><g class="tick"><line stroke="#eee" stroke-width="1" x1="-4" x2="578.0" y1="78.0" y2="78.0" /><text dy="0.32em" fill="#9c9c9c" font-family="Monaco" text-anchor="end" x="-8" y="78.0">[18.0 - 22.5)</text></g><g class="tick"><line stroke="#eee" stroke-width="1" x1="-4" x2="578.0" y1="46.8" y2="46.8" /><text dy="0.32em" fill="#9c9c9c" font-family="Monaco" text-anchor="end" x="-8" y="46.8">[13.5 - 18.0)</text></g><g class="tick"><line stroke="#eee" stroke-width="1" x1="-4" x2="578.0" y1="15.6" y2="15.6" /><text dy="0.32em" fill="#9c9c9c" font-family="Monaco" text-anchor="end" x="-8" y="15.6">[0.0 - 4.5)</text></g></g><g><g class="series bars"><rect fill="#e41a1c" height="28.08" width="57.8" x="0" y="438.36" /><rect fill="#e41a1c" height="28.08" width="28.90" x="0" y="407.16" /><rect fill="#e41a1c" height="28.08" width="144.50" x="0" y="375.96" /><rect fill="#e41a1c" height="28.08" width="57.8" x="0" y="344.76" /><rect fill="#e41a1c" height="28.08" width="144.50" x="0" y="313.56" /><rect fill="#e41a1c" height="28.08" width="144.50" x="0" y="282.36" /><rect fill="#e41a1c" height="28.08" width="173.4" x="0" y="251.16" /><rect fill="#e41a1c" height="28.08" width="57.8" x="0" y="219.96" /><rect fill="#e41a1c" height="28.08" width="173.4" x="0" y="188.76" /><rect fill="#e41a1c" height="28.08" width="115.6" x="0" y="157.56" /><rect fill="#e41a1c" height="28.08" width="549.10" x="0" y="126.36" /><rect fill="#e41a1c" height="28.08" width="346.8" x="0" y="95.16" /><rect fill="#e41a1c" height="28.08" width="231.2" x="0" y="63.96" /><rect fill="#e41a1c" height="28.08" width="57.8" x="0" y="32.76" /><rect fill="#e41a1c" height="28.08" width="28.90" x="0" y="1.56" /></g></g></g></g></g></g></svg>