<?xml version="1.0" standalone="no"?>
<!DOCTYPE svg PUBLIC "-//W3C//DTD SVG 1.1//EN"
"http://www.w3.org/Graphics/SVG/1.1/DTD/svg11.dtd">
<svg height="600" version="1.1" width="800" xmlns="http://www.w3.org/2000/svg"><g><rect fill="#f9f9f9" height="600" width="800" x="0" y="0" /><g transform="translate(40 40)"><g transform="translate(46 0)" /><g transform="translate(0 0)"><g transform="translate(46 0)"><g class="axis bottom"><text dy="1em" fill="#666" font-family="Monaco" text-anchor="middle" transform="" x="337.0" y="506.0">Count</text><g class="tick"><line stroke="#eee" stroke-width="1" x1="224.6666666666666666666666666" x2="224.6666666666666666666666666" y1="0" y2="472.0" /><text dy="1em" fill="#9c9c9c" font-family="Monaco" text-anchor="middle" x="224.6666666666666666666666666" y="476.0">20</text></g><g class="tick"><line stroke="#eee" stroke-width="1" x1="449.3333333333333333333333334" x2="449.3333333333333333333333334" y1="0" y2="472.0" /><text dy="1em" fill="#9c9c9c" font-family="Monaco" text-anchor="middle" x="449.3333333333333333333333334" y="476.0">40</text></g><g class="tick"><line stroke="#eee" stroke-width="1" x1="674" x2="674" y1="0" y2="472.0" /><text dy="1em" fill="#9c9c9c" font-family="Monaco" text-anchor="middle" x="674" y="476.0">60</text></g><g class="tick"><line stroke="#a8a8a8" stroke-width="1" x1="0" x2="0" y1="0" y2="472.0" /><text dy="1em" fill="#9c9c9c" font-family="Monaco" text-anchor="middle" x="0" y="476.0">0</text></g></g><g class="axis left"><text dy="" fill="#666" font-family="Monaco" text-anchor="middle" transform="rotate(270 -24 234)" x="-24" y="234.0">new_race</text><g class="tick"><line stroke="#eee" stroke-width="1" x1="-4" x2="674.0" y1="390" y2="390" /><text dy="0.32em" fill="#9c9c9c" font-family="Monaco" text-anchor="end" x="-8" y="390">M</text></g><g class="tick"><line stroke="#eee" stroke-width="1" x1="-4" x2="674.0" y1="234" y2="234" /><text dy="0.32em" fill="#9c9c9c" font-family="Monaco" text-anchor="end" x="-8" y="234">B</text></g><g class="tick"><line stroke="#eee" stroke-width="1" x1="-4" x2="674.0" y1="78" y2="78" /><text dy="0.32em" fill="#9c9c9c" font-family="Monaco" text-anchor="end" x="-8" y="78">W</text></g></g><g><g class="series bars"><rect fill="#e41a1c" height="140.4" width="11.23333333333333333333333334" x="0" y="319.8" /><rect fill="#e41a1c" height="140.4" width="640.30" x="0" y="163.8" /><rect fill="#e41a1c" height="140.4" width="247.1333333333333333333333334" x="0" y="7.8" /></g></g></g></g></g></g></svg>