<?xml version="1.0" standalone="no"?>
<!DOCTYPE svg PUBLIC "-//W3C//DTD SVG 1.1//EN"
"http://www.w3.org/Graphics/SVG/1.1/DTD/svg11.dtd">
<svg height="600" version="1.1" width="800" xmlns="http://www.w3.org/2000/svg"><g><rect fill="#f9f9f9" height="600" width="800" x="0" y="0" /><g transform="translate(40 40)"><g transform="translate(46 0)" /><g transform="translate(0 0)"><g transform="translate(46 0)"><g class="axis bottom"><text dy="1em" fill="#666" font-family="Monaco" text-anchor="middle" transform="" x="337.0" y="506.0">Count</text><g class="tick"><line stroke="#eee" stroke-width="1" x1="134.8" x2="134.8" y1="0" y2="472.0" /><text dy="1em" fill="#9c9c9c" font-family="Monaco" text-anchor="middle" x="134.8" y="476.0">10</text></g><g class="tick"><line stroke="#eee" stroke-width="1" x1="269.6" x2="269.6" y1="0" y2="472.0" /><text dy="1em" fill="#9c9c9c" font-family="Monaco" text-anchor="middle" x="269.6" y="476.0">20</text></g><g class="tick"><line stroke="#eee" stroke-width="1" x1="404.4" x2="404.4" y1="0" y2="472.0" /><text dy="1em" fill="#9c9c9c" font-family="Monaco" text-anchor="middle" x="404.4" y="476.0">30</text></g><g class="tick"><line stroke="#eee" stroke-width="1" x1="539.2" x2="539.2" y1="0" y2="472.0" /><text dy="1em" fill="#9c9c9c" font-family="Monaco" text-anchor="middle" x="539.2" y="476.0">40</text></g><g class="tick"><line stroke="#eee" stroke-width="1" x1="674" x2="674" y1="0" y2="472.0" /><text dy="1em" fill="#9c9c9c" font-family="Monaco" text-anchor="middle" x="674" y="476.0">50</text></g><g class="tick"><line stroke="#a8a8a8" stroke-width="1" x1="0" x2="0" y1="0" y2="472.0" /><text dy="1em" fill="#9c9c9c" font-family="Monaco" text-anchor="middle" x="0" y="476.0">0</text></g></g><g class="axis left"><text dy="" fill="#666" font-family="Monaco" text-anchor="middle" transform="rotate(270 -24 234)" x="-24" y="234.0">new_race</text><g class="tick"><line stroke="#eee" stroke-width="1" x1="-4" x2="674.0" y1="409.5" y2="409.5" /><text dy="0.32em" fill="#9c9c9c" font-family="Monaco" text-anchor="end" x="-8" y="409.5">A</text></g><g class="tick"><line stroke="#eee" stroke-width="1" x1="-4" x2="674.0" y1="292.5" y2="292.5" /><text dy="0.32em" fill="#9c9c9c" font-family="Monaco" text-anchor="end" x="-8" y="292.5">H</text></g><g class="tick"><line stroke="#eee" stroke-width="1" x1="-4" x2="674.0" y1="175.5" y2="175.5" /><text dy="0.32em" fill="#9c9c9c" font-family="Monaco" text-anchor="end" x="-8" y="175.5">W</text></g><g class="tick"><line stroke="#eee" stroke-width="1" x1="-4" x2="674.0" y1="58.5" y2="58.5" /><text dy="0.32em" fill="#9c9c9c" font-family="Monaco" text-anchor="end" x="-8" y="58.5">B</text></g></g><g><g class="series bars"><rect fill="#e41a1c" height="105.30" width="13.48" x="0" y="356.85" /><rect fill="#e41a1c" height="105.30" width="13.48" x="0" y="239.85" /><rect fill="#e41a1c" height="105.30" width="175.24" x="0" y="122.85" /><rect fill="#e41a1c" height="105.30" width="566.16" x="0" y="5.85" /></g></g></g></g></g></g></svg>