<?xml version="1.0" standalone="no"?>
<!DOCTYPE svg PUBLIC "-//W3C//DTD SVG 1.1//EN"
"http://www.w3.org/Graphics/SVG/1.1/DTD/svg11.dtd">
<svg height="600" version="1.1" width="800" xmlns="http://www.w3.org/2000/svg"><g><rect fill="#f9f9f9" height="600" width="800" x="0" y="0" /><g transform="translate(40 40)"><g transform="translate(142 0)" /><g transform="translate(0 0)"><g transform="translate(142 0)"><g class="axis bottom"><text dy="1em" fill="#666" font-family="Monaco" text-anchor="middle" transform="" x="289.0" y="506.0">Count</text><g class="tick"><line stroke="#eee" stroke-width="1" x1="144.50" x2="144.50" y1="0" y2="472.0" /><text dy="1em" fill="#9c9c9c" font-family="Monaco" text-anchor="middle" x="144.50" y="476.0">5</text></g><g class="tick"><line stroke="#eee" stroke-width="1" x1="289.0" x2="289.0" y1="0" y2="472.0" /><text dy="1em" fill="#9c9c9c" font-family="Monaco" text-anchor="middle" x="289.0" y="476.0">10</text></g><g class="tick"><line stroke="#eee" stroke-width="1" x1="433.50" x2="433.50" y1="0" y2="472.0" /><text dy="1em" fill="#9c9c9c" font-family="Monaco" text-anchor="middle" x="433.50" y="476.0">15</text></g><g class="tick"><line stroke="#eee" stroke-width="1" x1="578" x2="578" y1="0" y2="472.0" /><text dy="1em" fill="#9c9c9c" font-family="Monaco" text-anchor="middle" x="578" y="476.0">20</text></g><g class="tick"><line stroke="#a8a8a8" stroke-width="1" x1="0" x2="0" y1="0" y2="472.0" /><text dy="1em" fill="#9c9c9c" font-family="Monaco" text-anchor="middle" x="0" y="476.0">0</text></g></g><g class="axis left"><text dy="" fill="#666" font-family="Monaco" text-anchor="middle" transform="rotate(270 -120 234)" x="-120" y="234.0">new_age</text><g class="tick"><line stroke="#eee" stroke-width="1" x1="-4" x2="578.0" y1="450" y2="450" /><text dy="0.32em" fill="#9c9c9c" font-family="Monaco" text-anchor="end" x="-8" y="450">[72.0 - 76.5)</text></g><g class="tick"><line stroke="#eee" stroke-width="1" x1="-4" x2="578.0" y1="414" y2="414" /><text dy="0.32em" fill="#9c9c9c" font-family="Monaco" text-anchor="end" x="-8" y="414">[58.5 - 63.0)</text></g><g class="tick"><line stroke="#eee" stroke-width="1" x1="-4" x2="578.0" y1="378" y2="378" /><text dy="0.32em" fill="#9c9c9c" font-family="Monaco" text-anchor="end" x="-8" y="378">[49.5 - 54.0)</text></g><g class="tick"><line stroke="#eee" stroke-width="1" x1="-4" x2="578.0" y1="342" y2="342" /><text dy="0.32em" fill="#9c9c9c" font-family="Monaco" text-anchor="end" x="-8" y="342">[45.0 - 49.5)</text></g><g class="tick"><line stroke="#eee" stroke-width="1" x1="-4" x2="578.0" y1="306" y2="306" /><text dy="0.32em" fill="#9c9c9c" font-family="Monaco" text-anchor="end" x="-8" y="306">[40.5 - 45.0)</text></g><g class="tick"><line stroke="#eee" stroke-width="1" x1="-4" x2="578.0" y1="270" y2="270" /><text dy="0.32em" fill="#9c9c9c" font-family="Monaco" text-anchor="end" x="-8" y="270">[36.0 - 40.5)</text></g><g class="tick"><line stroke="#eee" stroke-width="1" x1="-4" x2="578.0" y1="234" y2="234" /><text dy="0.32em" fill="#9c9c9c" font-family="Monaco" text-anchor="end" x="-8" y="234">[31.5 - 36.0)</text></g><g class="tick"><line stroke="#eee" stroke-width="1" x1="-4" x2="578.0" y1="198" y2="198" /><text dy="0.32em" fill="#9c9c9c" font-family="Monaco" text-anchor="end" x="-8" y="198">[27.0 - 31.5)</text></g><g class="tick"><line stroke="#eee" stroke-width="1" x1="-4" x2="578.0" y1="162" y2="162" /><text dy="0.32em" fill="#9c9c9c" font-family="Monaco" text-anchor="end" x="-8" y="162">[22.5 - 27.0)</text></g><g class="tick"><line stroke="#eee" stroke-width="1" x1="-4" x2="578.0" y1="126" y2="126" /><text dy="0.32em" fill="#9c9c9c" font-family="Monaco" text-anchor="end" x="-8" y="126">[18.0 - 22.5)</text></g><g class="tick"><line stroke="#eee" stroke-width="1" x1="-4" x2="578.0" y1="90" y2="90" /><text dy="0.32em" fill="#9c9c9c" font-family="Monaco" text-anchor="end" x="-8" y="90">[13.5 - 18.0)</text></g><g class="tick"><line stroke="#eee" stroke-width="1" x1="-4" x2="578.0" y1="54" y2="54" /><text dy="0.32em" fill="#9c9c9c" font-family="Monaco" text-anchor="end" x="-8" y="54">[4.5 - 9.0)</text></g><g class="tick"><line stroke="#eee" stroke-width="1" x1="-4" x2="578.0" y1="18" y2="18" /><text dy="0.32em" fill="#9c9c9c" font-family="Monaco" text-anchor="end" x="-8" y="18">[0.0 - 4.5)</text></g></g><g><g class="series bars"><rect fill="#e41a1c" height="32.4" width="28.90" x="0" y="433.8" /><rect fill="#e41a1c" height="32.4" width="57.8" x="0" y="397.8" /><rect fill="#e41a1c" height="32.4" width="86.70" x="0" y="361.8" /><rect fill="#e41a1c" height="32.4" width="28.90" x="0" y="325.8" /><rect fill="#e41a1c" height="32.4" width="86.70" x="0" y="289.8" /><rect fill="#e41a1c" height="32.4" width="86.70" x="0" y="253.8" /><rect fill="#e41a1c" height="32.4" width="231.2" x="0" y="217.8" /><rect fill="#e41a1c" height="32.4" width="202.30" x="0" y="181.8" /><rect fill="#e41a1c" height="32.4" width="260.10" x="0" y="145.8" /><rect fill="#e41a1c" height="32.4" width="462.4" x="0" y="109.8" /><rect fill="#e41a1c" height="32.4" width="28.90" x="0" y="73.8" /><rect fill="#e41a1c" height="32.4" width="57.8" x="0" y="37.8" /><rect fill="#e41a1c" height="32.4" width="28.90" x="0" y="1.8" /></g></g></g></g></g></g></svg>